# xmcd
#
# Track frame offsets:
#        150
#        14076
#        27081
#        40797
#        54486
#        69504
#        84837
#        104127
#        115713
#        132624
#        146064
#        161910
#        178415
#        195118
#
# Disc length: 2778 seconds
#
# Revision: 0
# Processed by: cddbd v1.5.1PL2 Copyright (c) Steve Scherf et al.
# Submitted via: ExactAudioCopy v0.95a5
#
DISCID=c60ad80e
DTITLE=Calm Chaos - Melody Of Mokus
DYEAR=2006
DGENRE=Alt. Rock
TTITLE0=HEROIN[E]
TTITLE1=ALONE
TTITLE2=CONVERSATION
TTITLE3=RAPED ROMANCE
TTITLE4=RESTORED DESTRUCTION
TTITLE5=WHEN I'M GONE
TTITLE6=MELODY OF MOKUS
TTITLE7=TO BE
TTITLE8=GHOST KILLER
TTITLE9=CRUSH
TTITLE10=GET UP
TTITLE11=FREERIDE
TTITLE12=STAY AWAY
TTITLE13=JUSTICE
EXTD=
EXTT0=
EXTT1=
EXTT2=
EXTT3=
EXTT4=
EXTT5=
EXTT6=
EXTT7=
EXTT8=
EXTT9=
EXTT10=
EXTT11=
EXTT12=
EXTT13=
PLAYORDER=
